HIERARCHY
ROOT Hips
{
  OFFSET 47.6178 95.6889 22.2315
  CHANNELS 6 Xposition Yposition Zposition Zrotation Xrotation Yrotation
  JOINT spine
  {
    OFFSET 0 8.13249 0.467659
    CHANNELS 3 Zrotation Xrotation Yrotation
    JOINT spine1
    {
      OFFSET 0 10.3498 0
      CHANNELS 3 Zrotation Xrotation Yrotation
      JOINT spine2
      {
        OFFSET 0 9.91699 0
        CHANNELS 3 Zrotation Xrotation Yrotation
        JOINT Neck
        {
          OFFSET 0 25.461 1.2139
          CHANNELS 3 Zrotation Xrotation Yrotation
          JOINT Head
          {
            OFFSET 0 7.69245 0
            CHANNELS 3 Zrotation Xrotation Yrotation
            End Site
            {
              OFFSET 0 18.62 -6.14063
            }
          }
        }
        JOINT RightShoulder
        {
          OFFSET -4.17575 10.7096 -0.581445
          CHANNELS 3 Zrotation Xrotation Yrotation
          JOINT RightArm
          {
            OFFSET 0 14.0466 0
            CHANNELS 3 Zrotation Xrotation Yrotation
            JOINT RightArmRoll
            {
              OFFSET 0 7.09098 0
              CHANNELS 3 Zrotation Xrotation Yrotation
              JOINT RightForeArm
              {
                OFFSET 0 20.6535 0
                CHANNELS 3 Zrotation Xrotation Yrotation
                JOINT RightForeArmRoll
                {
                  OFFSET 0 7.95718 0
                  CHANNELS 3 Zrotation Xrotation Yrotation
                  JOINT RightHand
                  {
                    OFFSET 0 15.9683 0
                    CHANNELS 3 Zrotation Xrotation Yrotation
                    End Site
                    {
                      OFFSET 0 0 0
                    }
                  }
                }
              }
            }
          }
        }
        JOINT LeftShoulder
        {
          OFFSET 4.17575 10.7096 -0.581445
          CHANNELS 3 Zrotation Xrotation Yrotation
          JOINT LeftArm
          {
            OFFSET 0 14.0466 0
            CHANNELS 3 Zrotation Xrotation Yrotation
            JOINT LeftArmRoll
            {
              OFFSET 0 7.09098 0
              CHANNELS 3 Zrotation Xrotation Yrotation
              JOINT LeftForeArm
              {
                OFFSET 0 20.6535 0
                CHANNELS 3 Zrotation Xrotation Yrotation
                JOINT LeftForeArmRoll
                {
                  OFFSET 0 7.95718 0
                  CHANNELS 3 Zrotation Xrotation Yrotation
                  JOINT LeftHand
                  {
                    OFFSET 0 15.9683 0
                    CHANNELS 3 Zrotation Xrotation Yrotation
                    End Site
                    {
                      OFFSET 0 0 0
                    }
                  }
                }
              }
            }
          }
        }
      }
    }
  }
  JOINT RightUpLeg
  {
    OFFSET -7.20834 -1.32182 -1.10884
    CHANNELS 3 Zrotation Xrotation Yrotation
    JOINT RightUpLegRoll
    {
      OFFSET 0 18.7238 0
      CHANNELS 3 Zrotation Xrotation Yrotation
      JOINT RightLeg
      {
        OFFSET 0 -23.1866 0
        CHANNELS 3 Zrotation Xrotation Yrotation
        JOINT RightLegRoll
        {
          OFFSET 0 23.2624 0
          CHANNELS 3 Zrotation Xrotation Yrotation
          JOINT RightFoot
          {
            OFFSET 0 19.3621 0
            CHANNELS 3 Zrotation Xrotation Yrotation
            JOINT RightToeBase
            {
              OFFSET 0 16.1857 0
              CHANNELS 3 Zrotation Xrotation Yrotation
              End Site
              {
                OFFSET 0.00686052 7.83863 -0.903522
              }
            }
          }
        }
      }
    }
  }
  JOINT LeftUpLeg
  {
    OFFSET 7.20834 -1.32182 -1.10884
    CHANNELS 3 Zrotation Xrotation Yrotation
    JOINT LeftUpLegRoll
    {
      OFFSET 0 18.7239 0
      CHANNELS 3 Zrotation Xrotation Yrotation
      JOINT LeftLeg
      {
        OFFSET 0 23.1865 0
        CHANNELS 3 Zrotation Xrotation Yrotation
        JOINT LeftLegRoll
        {
          OFFSET 0 23.4775 0
          CHANNELS 3 Zrotation Xrotation Yrotation
          JOINT LeftFoot
          {
            OFFSET 0 19.147 0
            CHANNELS 3 Zrotation Xrotation Yrotation
            JOINT LeftToeBase
            {
              OFFSET 0 16.1857 0
              CHANNELS 3 Zrotation Xrotation Yrotation
              End Site
              {
                OFFSET -0.0307459 7.83863 -0.903522
              }
            }
          }
        }
      }
    }
  }
}
MOTION
Frames: 11
Frame Time: 0.00208333
50.235 95.9639 25.4029 6.25604 -1.31807 52.5479 -0.196551 -1.24568 0.999328 -0.381143 1.50897 2.01944 -0.405666 3.1536 2.02701 -16.0101 -1.96318 4.1043 4.7564 3.47036 2.25254 32.257 -9.66466 -5.75974 -120.638 50.1729 -127.447 -1.93257e-006 -2.21788e-006 2.31616e-006 -4.98517 14.9426 0.045069 -6.87953e-006 -5.96574e-006 -3.00718 8.03 -4.95138 0.697626 -64.0804 -18.7407 11.2683 -99.3767 22.7357 -5.09634 1.86745e-005 -4.99846e-007 2.89933e-006 -9.86743 9.90822 1.69574 3.14485e-006 -8.08222e-007 3.00372 -8.02907 -4.95144 -0.697667 167.616 -2.52777 7.06255 180 7.01558e-015 178.97 178.672 18.4147 179.779 6.43784e-007 7.63522e-007 0.750623 -27.1649 75.3114 28.6519 8.16331 25.7692 -2.79623 -176.913 1.83055 3.52174 4.5067e-006 -1.99009e-005 -1.04416 2.82701 -8.9132 0.842624 -2.07695e-006 -1.85518e-007 0.292448 14.5798 65.4867 -17.7901 -8.13649 25.2327 3.48773 
50.1776 95.963 25.4615 6.26533 -1.29478 52.5867 -0.200614 -1.245 1.00335 -0.389231 1.51009 2.02791 -0.413862 3.15471 2.03562 -16.1532 -2.04963 4.09597 4.90904 3.51391 2.24525 32.0233 -9.64807 -5.73994 -120.788 49.9686 -127.528 -1.93257e-006 -2.21788e-006 2.31616e-006 -4.85089 14.2646 -0.00821239 -6.87953e-006 -5.96574e-006 -3.00718 8.03 -4.95138 0.697626 -64.1977 -18.76 11.2679 -99.3693 22.7177 -5.14983 1.86745e-005 -4.99846e-007 2.89933e-006 -9.8557 9.85007 1.69153 3.14485e-006 -8.08222e-007 3.00372 -8.02907 -4.95144 -0.697667 167.641 -2.53996 7.05907 180 7.01558e-015 178.973 178.651 18.4097 179.784 6.43784e-007 7.63522e-007 0.750359 -27.2521 75.3587 28.7426 8.16252 25.7562 -2.81249 -176.903 1.85114 3.5306 4.5067e-006 -1.99009e-005 -1.04484 2.84693 -8.91089 0.843626 -2.07695e-006 -1.85518e-007 0.292621 14.597 65.4922 -17.7927 -8.13649 25.2327 3.48773 
50.123 95.9644 25.5118 6.27406 -1.27293 52.6254 -0.204507 -1.24416 1.0071 -0.396983 1.51153 2.03583 -0.421716 3.15615 2.04368 -16.2946 -2.13564 4.08847 5.06027 3.55832 2.23894 31.8019 -9.6258 -5.71411 -120.958 49.7722 -127.562 -1.93257e-006 -2.21788e-006 2.31616e-006 -4.7191 13.6058 -0.0584029 -6.87953e-006 -5.96574e-006 -3.00718 8.03 -4.95138 0.697626 -64.3141 -18.7784 11.2671 -99.3617 22.6987 -5.20594 1.86745e-005 -4.99846e-007 2.89933e-006 -9.84301 9.78982 1.68723 3.14485e-006 -8.08222e-007 3.00372 -8.02907 -4.95144 -0.697667 167.668 -2.552 7.05475 180 7.01559e-015 178.976 178.631 18.4046 179.789 6.43784e-007 7.63522e-007 0.749983 -27.3376 75.4047 28.8314 8.16174 25.7436 -2.82829 -176.891 1.87142 3.53824 4.5067e-006 -1.99009e-005 -1.04549 2.86686 -8.90843 0.844648 -2.07695e-006 -1.85518e-007 0.292837 14.6136 65.4974 -17.7952 -8.13649 25.2327 3.48773 
50.0614 95.9641 25.5675 6.28224 -1.25266 52.6638 -0.208228 -1.24318 1.01053 -0.404398 1.51327 2.0431 -0.429223 3.15788 2.05107 -16.4337 -2.22089 4.08207 5.20957 3.60392 2.2339 31.5943 -9.59716 -5.68153 -121.15 49.5851 -127.547 -1.93257e-006 -2.21788e-006 2.31616e-006 -4.59116 12.965 -0.105326 -6.87953e-006 -5.96574e-006 -3.00718 8.03 -4.95138 0.697626 -64.4292 -18.7961 11.2659 -99.3541 22.678 -5.26497 1.86745e-005 -4.99846e-007 2.89933e-006 -9.82928 9.72765 1.68287 3.14485e-006 -8.08222e-007 3.00372 -8.02907 -4.95144 -0.697667 167.697 -2.56391 7.04944 180 7.0156e-015 178.979 178.611 18.3993 179.793 6.43784e-007 7.63522e-007 0.749488 -27.4212 75.4492 28.9183 8.16098 25.7313 -2.84366 -176.877 1.89116 3.54446 4.5067e-006 -1.99009e-005 -1.04608 2.88672 -8.90563 0.84568 -2.07695e-006 -1.85518e-007 0.293116 14.6295 65.5022 -17.7974 -8.13649 25.2327 3.48773 
50.0081 95.9556 25.6175 6.28986 -1.23412 52.702 -0.211775 -1.24209 1.01358 -0.411471 1.51528 2.04959 -0.43638 3.15989 2.05769 -16.5698 -2.30507 4.07707 5.35641 3.65107 2.23041 31.4019 -9.56148 -5.64148 -121.366 49.4084 -127.479 -1.93257e-006 -2.21788e-006 2.31616e-006 -4.46844 12.341 -0.148799 -6.87953e-006 -5.96574e-006 -3.00718 8.03 -4.95138 0.697626 -64.5427 -18.8131 11.2645 -99.3465 22.6552 -5.32719 1.86745e-005 -4.99846e-007 2.89933e-006 -9.81442 9.66373 1.67848 3.14485e-006 -8.08222e-007 3.00372 -8.02907 -4.95144 -0.697667 167.727 -2.57573 7.04302 180 7.0156e-015 178.982 178.591 18.394 179.797 6.43784e-007 7.63522e-007 0.74887 -27.5031 75.4924 29.0032 8.16024 25.7193 -2.85863 -176.861 1.91017 3.54908 4.5067e-006 -1.99009e-005 -1.04662 2.90646 -8.90229 0.846713 -2.07695e-006 -1.85518e-007 0.29348 14.6445 65.5062 -17.7992 -8.13649 25.2327 3.48773 
49.9394 95.9542 25.6696 6.29692 -1.21747 52.7396 -0.215147 -1.24089 1.01621 -0.418199 1.51755 2.05522 -0.44318 3.16216 2.06343 -16.7026 -2.38783 4.07374 5.50027 3.7001 2.22876 31.2261 -9.51808 -5.59324 -121.609 49.2433 -127.353 -1.93257e-006 -2.21788e-006 2.31616e-006 -4.35231 11.7329 -0.188637 -6.87953e-006 -5.96574e-006 -3.00718 8.03 -4.95138 0.697626 -64.6544 -18.8293 11.2629 -99.3389 22.6297 -5.39289 1.86745e-005 -4.99846e-007 2.89933e-006 -9.79832 9.59823 1.67409 3.14485e-006 -8.08222e-007 3.00372 -8.02907 -4.95144 -0.697667 167.759 -2.58748 7.03535 180 7.01561e-015 178.984 178.573 18.3885 179.801 6.43784e-007 7.63522e-007 0.748124 -27.5831 75.5341 29.0861 8.15952 25.7076 -2.87321 -176.842 1.92821 3.55188 4.5067e-006 -1.99009e-005 -1.04709 2.92599 -8.89821 0.847737 -2.07695e-006 -1.85518e-007 0.293947 14.6585 65.5095 -17.8006 -8.13649 25.2327 3.48773 
49.8835 95.9518 25.724 6.30369 -1.20222 52.7773 -0.218542 -1.23951 1.01861 -0.424977 1.52021 2.06039 -0.450026 3.16481 2.06872 -16.831 -2.47042 4.0715 5.64069 3.75216 2.22847 31.0633 -9.46828 -5.53805 -121.873 49.0787 -127.171 -1.93257e-006 -2.21788e-006 2.31616e-006 -4.24198 11.1375 -0.223853 -6.87953e-006 -5.96574e-006 -3.00718 8.03 -4.95138 0.697626 -64.7649 -18.8446 11.2609 -99.3302 22.6039 -5.46262 1.86745e-005 -4.99846e-007 2.89933e-006 -9.78063 9.53076 1.66971 3.14485e-006 -8.08222e-007 3.00372 -8.02907 -4.95144 -0.697667 167.793 -2.59929 7.02687 180 7.01561e-015 178.986 178.555 18.3829 179.804 6.43784e-007 7.63522e-007 0.747234 -27.6606 75.5742 29.1664 8.15883 25.6965 -2.88715 -176.821 1.94528 3.55335 4.5067e-006 -1.99009e-005 -1.0475 2.9454 -8.89345 0.848678 -2.07695e-006 -1.85518e-007 0.294436 14.6723 65.5124 -17.8018 -8.13649 25.2327 3.48773 
49.827 95.957 25.7754 6.31035 -1.18786 52.8159 -0.222108 -1.23788 1.02099 -0.432101 1.52338 2.06555 -0.457218 3.16798 2.074 -16.9552 -2.55411 4.06962 5.77794 3.80769 2.22888 30.9092 -9.41382 -5.4777 -122.154 48.9051 -126.937 -1.93257e-006 -2.21788e-006 2.31616e-006 -4.13505 10.5542 -0.254006 -6.87953e-006 -5.96574e-006 -3.00718 8.03 -4.95138 0.697626 -64.8752 -18.8589 11.2582 -99.3194 22.5799 -5.53645 1.86745e-005 -4.99846e-007 2.89933e-006 -9.76118 9.46083 1.6653 3.14485e-006 -8.08222e-007 3.00372 -8.02907 -4.95144 -0.697667 167.827 -2.61126 7.01806 180 7.01561e-015 178.988 178.537 18.3773 179.807 6.43784e-007 7.63522e-007 0.746199 -27.7351 75.6123 29.2435 8.15817 25.686 -2.90019 -176.8 1.96166 3.55406 4.5067e-006 -1.99009e-005 -1.04786 2.96482 -8.8883 0.849494 -2.07695e-006 -1.85518e-007 0.294861 14.6868 65.5156 -17.8031 -8.13649 25.2327 3.48773 
49.7668 95.9543 25.8301 6.31681 -1.17446 52.8552 -0.225767 -1.23603 1.02331 -0.439415 1.52703 2.07061 -0.464599 3.17163 2.07919 -17.0759 -2.63864 4.06812 5.91259 3.866 2.22998 30.7641 -9.35465 -5.41223 -122.449 48.7255 -126.656 -1.93257e-006 -2.21788e-006 2.31616e-006 -4.03047 9.98501 -0.279719 -6.87953e-006 -5.96574e-006 -3.00718 8.03 -4.95138 0.697626 -64.9852 -18.8722 11.2548 -99.3069 22.5572 -5.61393 1.86745e-005 -4.99846e-007 2.89933e-006 -9.74019 9.38846 1.66083 3.14485e-006 -8.08222e-007 3.00372 -8.02907 -4.95144 -0.697667 167.861 -2.6233 7.00884 180 7.01562e-015 178.99 178.52 18.3718 179.81 6.43784e-007 7.63522e-007 0.745026 -27.8067 75.6486 29.3176 8.15753 25.6762 -2.91244 -176.777 1.97748 3.55395 4.5067e-006 -1.99009e-005 -1.04817 2.98425 -8.88287 0.850222 -2.07695e-006 -1.85518e-007 0.295241 14.7017 65.519 -17.8045 -8.13649 25.2327 3.48773 
49.6949 95.9458 25.8828 6.32298 -1.1621 52.8949 -0.229442 -1.23396 1.02554 -0.446763 1.53112 2.07547 -0.472012 3.17572 2.08418 -17.1938 -2.72377 4.06702 6.04519 3.92637 2.23174 30.6284 -9.29074 -5.34167 -122.758 48.5429 -126.332 -1.93257e-006 -2.21788e-006 2.31616e-006 -3.92725 9.43179 -0.301606 -6.87953e-006 -5.96574e-006 -3.00718 8.03 -4.95138 0.697626 -65.0948 -18.8845 11.251 -99.2932 22.5352 -5.69465 1.86745e-005 -4.99846e-007 2.89933e-006 -9.71787 9.31369 1.65628 3.14485e-006 -8.08222e-007 3.00372 -8.02907 -4.95144 -0.697667 167.896 -2.63532 6.99914 180 7.01562e-015 178.991 178.503 18.3663 179.813 6.43784e-007 7.63522e-007 0.743726 -27.8757 75.6832 29.3888 8.15691 25.667 -2.92398 -176.753 1.99292 3.553 4.5067e-006 -1.99009e-005 -1.04843 3.00372 -8.87728 0.850898 -2.07695e-006 -1.85518e-007 0.295594 14.7167 65.5226 -17.806 -8.13649 25.2327 3.48773 
49.64 95.945 25.9343 6.32875 -1.15084 52.9349 -0.233054 -1.2317 1.02762 -0.45399 1.53561 2.08005 -0.4793 3.18021 2.08888 -17.3097 -2.80923 4.06636 6.17631 3.98809 2.23414 30.5023 -9.22205 -5.26607 -123.08 48.3605 -125.969 -1.93257e-006 -2.21788e-006 2.31616e-006 -3.82442 8.8966 -0.320273 -6.87953e-006 -5.96574e-006 -3.00718 8.03 -4.95138 0.697626 -65.204 -18.8958 11.2465 -99.2787 22.5136 -5.77817 1.86745e-005 -4.99846e-007 2.89933e-006 -9.69445 9.23654 1.65162 3.14485e-006 -8.08222e-007 3.00372 -8.02907 -4.95144 -0.697667 167.932 -2.64726 6.98888 180 7.01563e-015 178.993 178.486 18.3608 179.816 6.43784e-007 7.63522e-007 0.742307 -27.9422 75.7163 29.4575 8.15632 25.6583 -2.93491 -176.727 2.00813 3.55115 4.5067e-006 -1.99009e-005 -1.04866 3.02326 -8.87165 0.851559 -2.07695e-006 -1.85518e-007 0.295939 14.7317 65.5261 -17.8076 -8.13649 25.2327 3.48773 
